<?xml version="1.0" encoding="UTF-8"?>
<svg xmlns="http://www.w3.org/2000/svg" width="64" height="64" viewBox="0 0 64 64">
  <defs>
    <marker id="arrowBlue" markerWidth="6" markerHeight="6" refX="5.4" refY="3" orient="auto" markerUnits="strokeWidth">
      <path d="M0,0 L6,3 L0,6 Z" fill="#1f77ff"/>
    </marker>
    <marker id="arrowGreen" markerWidth="6" markerHeight="6" refX="5.4" refY="3" orient="auto" markerUnits="strokeWidth">
      <path d="M0,0 L6,3 L0,6 Z" fill="#45c85a"/>
    </marker>
    <filter id="shadow" x="-20%" y="-20%" width="140%" height="140%">
      <feDropShadow dx="0" dy="1" stdDeviation="1" flood-opacity="0.22"/>
    </filter>
  </defs>
  <rect x="1.5" y="1.5" width="61" height="61" rx="10" fill="#f6f7f8" stroke="#7f8a96" stroke-width="2"/>

  <g aria-label="active scope">
    <circle cx="20" cy="20" r="12" fill="#ffffff" stroke="#d93636" stroke-width="2.5"/>
    <circle cx="20" cy="20" r="6.5" fill="none" stroke="#d93636" stroke-width="2.5"/>
    <circle cx="20" cy="20" r="2.5" fill="#d93636"/>
  </g>

  <g filter="url(#shadow)" stroke-linecap="round" stroke-linejoin="round">
    <line x1="38" y1="32" x2="10" y2="32" stroke="#1f77ff" stroke-width="1.5" marker-start="url(#arrowBlue)"/>
    <line x1="26" y1="32" x2="54" y2="32" stroke="#1f77ff" stroke-width="1.5" marker-start="url(#arrowBlue)"/>
    <line x1="32" y1="32" x2="32" y2="13" stroke="#45c85a" stroke-width="1.5" marker-end="url(#arrowGreen)"/>
    <circle cx="32" cy="32" r="5.5" fill="#ffffff" stroke="#2f3438" stroke-width="2.5"/>
    <circle cx="32" cy="32" r="2" fill="#2f3438"/>
  </g>

  <g transform="translate(44 2)">
    <path
      d="M1 8C2.8 5.2 5.2 3 8 3C10.8 3 13.2 5.2 15 8C13.2 10.8 10.8 13 8 13C5.2 13 2.8 10.8 1 8Z"
      fill="white"
      stroke="black"
      stroke-width="1.5"
      stroke-linejoin="round"
    />
    <circle cx="8" cy="8" r="2.25" fill="black"/>
  </g>
</svg>
