<svg xmlns="http://www.w3.org/2000/svg" width="64" height="64" viewBox="0 0 64 64" role="img" aria-label="Kissing lips with heart icon">
  <defs>
    <g id="lips-icon" fill="none" stroke-linecap="round" stroke-linejoin="round">
      <path d="M8 34c7-10 15-13 24-6 9-7 17-4 24 6-7 8-15 12-24 12S15 42 8 34Z" fill="#e85a75"/>
      <path d="M8 34c8 2 16 2 24 0 8 2 16 2 24 0" stroke="#9f2f45" stroke-width="2"/>
    </g>
    <g id="heart" fill="#e63956" stroke-linecap="round" stroke-linejoin="round">
      <path d="M32 38s-8-4.8-8-10a4.8 4.8 0 0 1 8-3.6A4.8 4.8 0 0 1 40 28c0 5.2-8 10-8 10Z" />
    </g>
  </defs>

  <use href="#lips-icon" transform="rotate(-22 32 32) scale(.55) translate(10 10)" filter="brightness(0.3)"/>
  <use href="#lips-icon" transform="rotate(-22 32 32) scale(.55) translate(10 -10)" filter="brightness(0.5)"/>
  <use href="#lips-icon" transform="rotate(-22 32 32) scale(.55) translate(10 -30)"/>
  <use href="#lips-icon" transform="rotate(22 32 32) scale(.55) translate(45 10)" filter="brightness(0.3)"/>
  <use href="#lips-icon" transform="rotate(22 32 32) scale(.55) translate(45 -10)" filter="brightness(0.5)"/>
  <use href="#lips-icon" transform="rotate(22 32 32) scale(.55) translate(45 -30)"/>
  <use href="#heart" transform="scale(2) translate(-16 -6)"/>

</svg>